<svg width="103" height="101" viewBox="0 0 103 101" fill="none" xmlns="http://www.w3.org/2000/svg">
<path d="M49.8415 0.886966C49.8415 1.03704 49.881 1.08444 50.0232 1.08444C50.1259 1.08444 50.276 1.13183 50.3629 1.19502C50.4971 1.29771 50.5129 1.42409 50.5366 2.41935C50.584 4.40197 50.3629 5.72899 49.9363 6.06074C49.8257 6.15553 49.7309 6.29771 49.723 6.3767C49.7072 6.52678 49.7704 6.53468 50.8052 6.53468C51.8084 6.53468 51.8952 6.51888 51.8952 6.3925C51.8952 6.31351 51.7926 6.17133 51.6583 6.07654C51.5319 5.97385 51.366 5.76848 51.3028 5.6105C51.1211 5.17607 51.0185 4.01493 51.0422 2.759L51.0659 1.62156L52.8826 4.1808C54.2254 6.06864 54.7467 6.74005 54.881 6.75584L55.0548 6.77954V5.05758C55.0548 2.41145 55.2365 1.3767 55.7183 1.14763C55.8526 1.09234 55.9237 0.997551 55.9237 0.871168C55.9237 0.689494 55.9237 0.689494 54.8573 0.689494H53.791V0.886966C53.791 0.997551 53.8542 1.11603 53.9568 1.17133C54.3439 1.3767 54.5809 2.51414 54.5809 4.16501C54.573 5.16027 54.7783 5.34194 52.8826 2.66422L51.4845 0.689494H50.663H49.8415V0.886966Z" fill="#02121E"/>
<path d="M52.2346 11.1397C52.053 12.0165 51.5237 14.5441 51.0656 16.7637C50.6075 18.9754 49.8571 22.5694 49.4068 24.7416C48.9566 26.9138 48.1193 30.9264 47.5506 33.6674C46.3263 39.5836 46.2315 40.0339 46.192 40.0655C46.1841 40.0734 43.5932 38.3988 40.4495 36.3372C35.3389 32.9881 34.7228 32.601 34.6122 32.7037C34.5095 32.8143 34.8887 33.4304 38.2457 38.541C40.3073 41.6847 41.9977 44.2598 41.9898 44.2677C41.9819 44.2835 40.2046 44.6547 32.4242 46.2661C29.6912 46.8348 25.9234 47.6168 24.0514 48.0039C22.1872 48.3909 19.2725 48.9991 17.5743 49.3467C15.8839 49.6942 13.8223 50.1287 13.0087 50.2945C12.1951 50.4683 11.5079 50.6105 11.4921 50.6105C11.4684 50.6105 11.4526 50.7369 11.4526 50.887C11.4526 51.037 11.4684 51.1634 11.4921 51.1634C11.5158 51.1634 12.282 51.3214 13.2062 51.5189C14.1304 51.7084 16.2552 52.1508 17.9297 52.4983C22.6691 53.4778 26.9187 54.3625 29.3831 54.8759C37.985 56.6689 41.5632 57.4035 41.6501 57.4035C42.0451 57.4114 41.9819 57.5141 38.1983 63.2882C34.8729 68.3514 34.4384 69.0465 34.5411 69.1492C34.6438 69.2519 35.3389 68.8174 40.4021 65.4999C43.5616 63.4304 46.1525 61.7479 46.1604 61.7637C46.1683 61.7795 46.3657 62.6958 46.5948 63.8016C46.816 64.9075 47.3768 67.5931 47.827 69.7653C48.2773 71.9375 48.9329 75.0813 49.2804 76.7558C49.628 78.4304 50.1967 81.1713 50.5443 82.8538C50.8997 84.5441 51.4684 87.293 51.816 88.9754C52.1635 90.6658 52.4716 92.1034 52.4953 92.1745C52.5269 92.2693 52.6217 92.3167 52.7954 92.3167H53.0482L53.4195 90.5552C53.6169 89.5915 54.4305 85.7053 55.2125 81.9296C57.3689 71.5347 57.5032 70.8948 58.4906 66.1792C58.9882 63.77 59.4147 61.7874 59.4226 61.7716C59.4384 61.7558 61.9977 63.4225 65.1177 65.4604C68.2378 67.5062 70.8207 69.1808 70.8681 69.1966C70.9076 69.2045 70.9787 69.1571 71.0261 69.0939C71.0893 68.9991 70.2994 67.7432 67.3768 63.2961C65.331 60.1761 63.6801 57.5931 63.7196 57.5615C63.7512 57.5299 65.1019 57.2377 66.7054 56.9059C68.3168 56.5742 71.5158 55.9106 73.8144 55.4367C76.1209 54.9549 80.2441 54.1018 82.9771 53.5331C85.718 52.9644 89.3515 52.214 91.0577 51.8585L94.162 51.2108L94.1383 50.9343L94.1146 50.6658L92.1003 50.2471C90.9945 50.0181 87.8507 49.3625 85.1098 48.7937C79.1778 47.5615 73.2299 46.3293 67.7323 45.1839C65.5206 44.7258 63.688 44.3388 63.6801 44.3309C63.6643 44.3151 65.3468 41.7163 67.4163 38.5647C70.7812 33.4383 71.1762 32.8064 71.0656 32.7037C70.9629 32.5931 70.3389 32.9802 65.2362 36.3293C60.6312 39.3467 59.5095 40.0576 59.4621 39.9549C59.4305 39.8838 59.2015 38.8648 58.9645 37.6958C58.7196 36.5189 58.1509 33.7858 57.7007 31.6136C57.2504 29.4415 56.5948 26.274 56.2394 24.5836C55.8839 22.8854 55.2283 19.7258 54.7781 17.5536C54.3278 15.3814 53.767 12.6879 53.5379 11.5742L53.1193 9.53624H52.8428H52.5664L52.2346 11.1397ZM52.5269 31.3609L52.4874 50.1366L49.2567 46.9059L46.0261 43.6753L46.1209 43.2961C46.1683 43.0828 46.579 41.116 47.0293 38.9201C47.7875 35.255 48.4827 31.9375 50.7496 21.0291C51.1999 18.8569 51.7686 16.1002 52.0135 14.9075C52.4637 12.7274 52.519 12.4904 52.5506 12.5457C52.5585 12.5615 52.5506 21.0291 52.5269 31.3609ZM64.8571 38.6437C62.2662 41.2187 60.1493 43.3277 60.1414 43.3198C60.1335 43.3119 59.9992 42.6642 59.8334 41.8901C59.5964 40.7369 59.5648 40.4604 59.6517 40.413C59.707 40.3735 61.9424 38.9043 64.6122 37.1508C67.282 35.3893 69.4858 33.9517 69.5095 33.9517C69.5332 33.9438 67.44 36.0607 64.8571 38.6437ZM45.1809 43.5805C45.1809 43.62 42.3926 44.2203 42.3689 44.1887C42.361 44.1808 40.876 41.9138 39.0672 39.1571L35.7733 34.1413L40.4732 38.8411C43.064 41.4241 45.1809 43.5568 45.1809 43.5805ZM63.8618 44.9549C67.2504 45.6579 69.0435 46.0291 79.5253 48.2013C89.8255 50.3419 91.192 50.6263 91.2236 50.6579C91.2394 50.6737 82.7481 50.6895 72.3452 50.6895H53.4353L56.7133 47.4114C58.8065 45.3182 60.0308 44.1492 60.1098 44.165C60.173 44.1887 61.8634 44.5441 63.8618 44.9549ZM48.9092 54.4257L45.6469 57.6879L42.5506 57.0402C38.0798 56.1081 24.5964 53.3119 18.0482 51.9533C16.1841 51.5663 14.5806 51.2345 14.4937 51.2187C14.4068 51.195 22.8507 51.1792 33.2536 51.1713L52.1714 51.1634L48.9092 54.4257ZM58.9013 61.4478C58.53 63.2408 57.8507 66.5031 57.3926 68.699C56.9345 70.8948 56.0103 75.3498 55.331 78.6121C54.6517 81.8664 53.8934 85.5473 53.6327 86.7874C53.38 88.0276 53.1509 89.1097 53.1351 89.1966C53.1114 89.2835 53.0956 80.8791 53.0877 70.5157L53.0798 51.6768L56.3342 54.9312L59.5806 58.1776L58.9013 61.4478ZM66.4763 62.5536C68.2536 65.2471 69.7386 67.5141 69.7781 67.5852C69.8097 67.6563 67.7086 65.5789 65.094 62.9723C62.4795 60.3656 60.3863 58.225 60.4416 58.2092C60.9787 58.0907 63.0956 57.6563 63.1588 57.6484C63.2141 57.6405 64.707 59.8522 66.4763 62.5536ZM45.8128 60.0734C45.955 60.7764 46.0577 61.3688 46.0419 61.3846C46.0024 61.4241 38.5458 66.3135 37.0845 67.2535L36.0577 67.9249L40.7575 63.2171C44.3831 59.5836 45.4653 58.541 45.5048 58.6516C45.5285 58.7227 45.6706 59.3625 45.8128 60.0734Z" fill="#02121E"/>
<path d="M0.947266 48.0354C0.947266 48.1697 1.01836 48.2645 1.16054 48.3356C1.46859 48.4857 1.68186 48.9754 2.57444 51.6136C3.33273 53.8648 3.36433 53.928 3.5618 53.928C3.75927 53.928 3.80667 53.8569 4.21741 52.7985C4.88881 51.1239 5.24426 50.2945 5.29166 50.2945C5.31535 50.2945 5.59971 51.116 5.92357 52.1192L6.50809 53.9359L6.73716 53.9122C6.95832 53.8885 6.99782 53.8174 7.92989 51.4715C8.93305 48.9912 9.18581 48.4857 9.51757 48.3356C9.65185 48.2724 9.71504 48.1776 9.71504 48.0433V47.838L8.63289 47.8617L7.54284 47.8854V48.0828C7.54284 48.2408 7.59024 48.2882 7.77981 48.304C8.16685 48.3514 8.23794 48.462 8.19055 48.9517C8.15896 49.3072 7.43226 51.5031 7.1005 52.2692C7.02152 52.443 6.93463 52.2455 6.35011 50.4525C5.84458 48.9201 5.7024 48.4067 5.76559 48.304C5.80509 48.225 5.84458 48.0907 5.84458 48.0038C5.84458 47.8538 5.79719 47.8459 4.9757 47.8459H4.10682V48.067C4.10682 48.2487 4.15422 48.304 4.35959 48.3593C4.9757 48.541 4.9678 49.3704 4.33589 51.195C3.95674 52.2929 3.79087 52.6326 3.79087 52.3245C3.79087 52.2771 3.50651 51.3609 3.15896 50.2945C2.75611 49.0544 2.55864 48.3356 2.60603 48.2882C2.65343 48.2408 2.68502 48.1302 2.68502 48.0275C2.68502 47.8459 2.66922 47.8459 1.81614 47.8459H0.947266V48.0354Z" fill="#02121E"/>
<path d="M98.5146 47.9327C97.6141 48.1065 96.6346 48.928 96.1844 49.8759C95.9553 50.3735 95.9316 50.4762 95.9316 51.2029C95.9395 51.8664 95.9632 52.0559 96.1212 52.364C96.4056 52.9485 96.8716 53.4225 97.4324 53.6989C97.8669 53.9122 98.0248 53.9438 98.5936 53.9517C100.063 53.9675 101.295 53.146 101.832 51.7953C102.101 51.1318 102.085 50.0891 101.801 49.4888C101.224 48.2566 99.9443 47.6484 98.5146 47.9327ZM99.6836 48.7621C100.189 49.0386 100.631 49.5678 100.876 50.1918C101.129 50.8395 101.137 51.9296 100.892 52.3956C100.41 53.304 99.3519 53.6436 98.3803 53.1855C97.4166 52.7431 96.761 51.4714 96.8558 50.255C96.9111 49.6626 97.1323 49.2123 97.5588 48.849C97.9459 48.5172 98.0564 48.4856 98.7436 48.5093C99.1386 48.5251 99.3677 48.5883 99.6836 48.7621Z" fill="#02121E"/>
<path d="M52.8353 94.6152C51.8953 94.7574 51.1844 95.4446 51.1844 96.2108C51.1844 96.8664 51.3503 97.0639 52.6536 97.9881C53.4751 98.5647 53.7121 98.8569 53.7121 99.3072C53.7121 99.9865 52.9222 100.429 52.2903 100.097C51.9585 99.9233 51.6742 99.5125 51.5715 99.0465C51.4925 98.6674 51.4688 98.6358 51.2555 98.6358H51.0186L51.0423 99.5204L51.0659 100.397L51.3819 100.516C51.5636 100.587 51.9822 100.634 52.3693 100.642C52.9301 100.65 53.096 100.618 53.3961 100.46C54.1386 100.073 54.581 99.4651 54.581 98.8332C54.581 98.2171 54.4072 97.9881 53.3092 97.214C52.3219 96.511 52.0533 96.2029 52.0533 95.7843C52.0533 94.8838 53.3171 94.8127 53.6805 95.6816C53.7437 95.8317 53.7911 96.037 53.7911 96.1476C53.7911 96.3214 53.8227 96.3451 54.0675 96.3451H54.344V95.571V94.789L53.8938 94.6942C53.2539 94.552 53.2381 94.552 52.8353 94.6152Z" fill="#02121E"/>
</svg>
