<svg width="24" height="24" viewBox="0 0 24 24" fill="none" xmlns="http://www.w3.org/2000/svg">
<path d="M22.6666 11.1867C22.9143 11.0021 23.0981 10.7446 23.1922 10.4503C23.2862 10.156 23.2858 9.83961 23.191 9.54556C23.0961 9.2515 22.9116 8.9945 22.6634 8.81058C22.4151 8.62667 22.1155 8.52506 21.8066 8.52002L15.8066 8.29335C15.7771 8.29131 15.7488 8.28079 15.7251 8.26305C15.7015 8.24531 15.6834 8.2211 15.6732 8.19335L13.5999 2.59335C13.4957 2.30844 13.3065 2.06243 13.0579 1.88861C12.8093 1.7148 12.5132 1.62158 12.2099 1.62158C11.9065 1.62158 11.6105 1.7148 11.3619 1.88861C11.1133 2.06243 10.9241 2.30844 10.8199 2.59335L8.75323 8.21335C8.74301 8.2411 8.72499 8.26531 8.70133 8.28305C8.67768 8.30079 8.64939 8.31131 8.61989 8.31335L2.61989 8.54002C2.31096 8.54506 2.01136 8.64667 1.76309 8.83058C1.51482 9.0145 1.33033 9.2715 1.2355 9.56556C1.14067 9.85962 1.14024 10.176 1.23428 10.4703C1.32833 10.7646 1.51212 11.0221 1.75989 11.2067L6.46656 14.9067C6.49012 14.9252 6.50772 14.9503 6.5172 14.9787C6.52668 15.0071 6.52762 15.0377 6.51989 15.0667L4.89989 20.8067C4.81595 21.099 4.82408 21.41 4.92319 21.6975C5.02229 21.9851 5.20756 22.2351 5.45379 22.4135C5.70002 22.592 5.99526 22.6903 6.29933 22.695C6.6034 22.6998 6.90156 22.6107 7.15323 22.44L12.1266 19.1067C12.1511 19.0898 12.1801 19.0807 12.2099 19.0807C12.2397 19.0807 12.2687 19.0898 12.2932 19.1067L17.2666 22.44C17.5148 22.6166 17.8119 22.7114 18.1166 22.7114C18.4212 22.7114 18.7183 22.6166 18.9666 22.44C19.2129 22.2632 19.3983 22.0144 19.4974 21.7279C19.5965 21.4414 19.6043 21.1312 19.5199 20.84L17.8866 15.08C17.8779 15.0511 17.8784 15.0202 17.8879 14.9916C17.8975 14.9629 17.9156 14.938 17.9399 14.92L22.6666 11.1867Z" fill="#E3E9CD"/>
</svg>
