<svg width="26" height="26" viewBox="0 0 26 26" fill="none" xmlns="http://www.w3.org/2000/svg">
<path d="M18.9046 16.7738C20.4636 14.6465 21.1618 12.009 20.8596 9.38895C20.5575 6.76893 19.2772 4.35962 17.2749 2.64302C15.2726 0.926425 12.696 0.0291438 10.0606 0.130692C7.42518 0.232239 4.92527 1.32513 3.06102 3.19071C1.19678 5.05629 0.105678 7.55698 0.00601607 10.1925C-0.0936459 12.828 0.805479 15.4039 2.52351 17.405C4.24154 19.406 6.65177 20.6846 9.272 20.9849C11.8922 21.2852 14.5292 20.585 16.6554 19.0246H16.6538C16.7021 19.089 16.7536 19.1501 16.8116 19.2097L23.0101 25.4082C23.312 25.7103 23.7215 25.8801 24.1486 25.8803C24.5757 25.8804 24.9853 25.7109 25.2874 25.409C25.5895 25.1071 25.7594 24.6976 25.7595 24.2705C25.7597 23.8434 25.5901 23.4338 25.2882 23.1317L19.0898 16.9332C19.0322 16.8749 18.9703 16.8211 18.9046 16.7722V16.7738ZM19.32 10.5849C19.32 11.7478 19.0909 12.8993 18.6459 13.9736C18.2009 15.0479 17.5487 16.0241 16.7264 16.8464C15.9041 17.6686 14.928 18.3209 13.8536 18.7659C12.7793 19.2109 11.6278 19.4399 10.465 19.4399C9.30213 19.4399 8.15066 19.2109 7.07632 18.7659C6.00198 18.3209 5.02581 17.6686 4.20355 16.8464C3.38129 16.0241 2.72903 15.0479 2.28403 13.9736C1.83902 12.8993 1.60998 11.7478 1.60998 10.5849C1.60998 8.23645 2.54292 5.98415 4.20355 4.32351C5.86418 2.66288 8.11649 1.72994 10.465 1.72994C12.8135 1.72994 15.0658 2.66288 16.7264 4.32351C18.387 5.98415 19.32 8.23645 19.32 10.5849V10.5849Z" fill="#E3E9CD"/>
</svg>
