<svg width="86" height="85" viewBox="0 0 86 85" fill="none" xmlns="http://www.w3.org/2000/svg">
<g clip-path="url(#clip0_20_59)">
<path d="M22.5892 63.8828C22.9204 63.9932 23.2265 64.1678 23.4901 64.3966C23.7538 64.6255 23.9697 64.904 24.1256 65.2163C24.2815 65.5286 24.3743 65.8686 24.3988 66.2168C24.4232 66.565 24.3788 66.9146 24.268 67.2456L21.6117 75.2144C21.3699 75.8575 20.8883 76.3818 20.2681 76.6773C19.6479 76.9729 18.9373 77.0166 18.2855 76.7993C17.6337 76.5821 17.0915 76.1207 16.7726 75.5122C16.4538 74.9036 16.3831 74.1952 16.5755 73.5356L19.2317 65.5669C19.4537 64.8984 19.9321 64.3454 20.5618 64.0296C21.1914 63.7138 21.9207 63.661 22.5892 63.8828ZM38.5267 63.8828C38.8579 63.9932 39.164 64.1678 39.4276 64.3966C39.6913 64.6255 39.9072 64.904 40.0631 65.2163C40.219 65.5286 40.3118 65.8686 40.3363 66.2168C40.3607 66.565 40.3163 66.9146 40.2055 67.2456L34.893 83.1831C34.6512 83.8262 34.1696 84.3505 33.5493 84.6461C32.9291 84.9416 32.2185 84.9853 31.5668 84.7681C30.915 84.5508 30.3727 84.0895 30.0539 83.4809C29.735 82.8724 29.6644 82.1639 29.8567 81.5044L35.1692 65.5669C35.3912 64.8984 35.8696 64.3454 36.4992 64.0296C37.1289 63.7138 37.8582 63.661 38.5267 63.8828ZM54.4642 63.8828C54.7954 63.9932 55.1015 64.1678 55.3651 64.3966C55.6288 64.6255 55.8447 64.904 56.0006 65.2163C56.1565 65.5286 56.2493 65.8686 56.2738 66.2168C56.2982 66.565 56.2538 66.9146 56.143 67.2456L53.4867 75.2144C53.2449 75.8575 52.7633 76.3818 52.1431 76.6773C51.5229 76.9729 50.8123 77.0166 50.1605 76.7993C49.5087 76.5821 48.9665 76.1207 48.6476 75.5122C48.3288 74.9036 48.2581 74.1952 48.4505 73.5356L51.1067 65.5669C51.3287 64.8984 51.8071 64.3454 52.4367 64.0296C53.0664 63.7138 53.7957 63.661 54.4642 63.8828ZM70.4017 63.8828C70.7329 63.9932 71.039 64.1678 71.3026 64.3966C71.5663 64.6255 71.7822 64.904 71.9381 65.2163C72.094 65.5286 72.1868 65.8686 72.2113 66.2168C72.2357 66.565 72.1913 66.9146 72.0805 67.2456L66.768 83.1831C66.6679 83.5262 66.4997 83.8455 66.2734 84.1219C66.0471 84.3984 65.7673 84.6264 65.4508 84.7922C65.1343 84.9581 64.7876 85.0583 64.4314 85.0871C64.0753 85.1158 63.717 85.0723 63.378 84.9593C63.039 84.8463 62.7263 84.6661 62.4586 84.4295C62.1909 84.1928 61.9737 83.9046 61.82 83.582C61.6663 83.2594 61.5793 82.9092 61.5641 82.5522C61.549 82.1952 61.606 81.8388 61.7317 81.5044L67.0442 65.5669C67.2662 64.8984 67.7446 64.3454 68.3742 64.0296C69.0039 63.7138 69.7332 63.661 70.4017 63.8828ZM71.7139 26.706C70.6107 21.1446 67.7573 16.0821 63.5709 12.2585C59.3845 8.43492 54.0848 6.05088 48.4465 5.45494C42.8082 4.859 37.1271 6.08242 32.2339 8.94632C27.3407 11.8102 23.492 16.1644 21.2505 21.3722C18.7368 21.0826 16.1905 21.3091 13.7674 22.0379C11.3443 22.7666 9.09546 23.9823 7.15853 25.6104C5.22161 27.2385 3.63736 29.2448 2.50279 31.5065C1.36822 33.7682 0.707204 36.2376 0.560211 38.7636C0.413219 41.2896 0.783343 43.8191 1.64792 46.1971C2.5125 48.5751 3.85335 50.7516 5.58836 52.5934C7.32337 54.4352 9.41604 55.9035 11.7382 56.9084C14.0604 57.9132 16.5633 58.4336 19.0936 58.4375H69.5624C73.6058 58.4421 77.4997 56.9097 80.4556 54.1507C83.4114 51.3917 85.208 47.6123 85.4816 43.5782C85.7551 39.5441 84.4851 35.5568 81.9287 32.424C79.3724 29.2912 75.7209 27.2472 71.7139 26.706ZM45.6561 10.625C50.8834 10.6239 55.9277 12.5496 59.8244 16.0337C63.7212 19.5179 66.1971 24.3161 66.7786 29.511C66.8508 30.1636 67.1623 30.7664 67.6528 31.203C68.1433 31.6396 68.7782 31.879 69.4349 31.875H69.5624C72.3803 31.875 75.0828 32.9944 77.0754 34.987C79.0679 36.9796 80.1874 39.6821 80.1874 42.5C80.1874 45.3179 79.0679 48.0205 77.0754 50.013C75.0828 52.0056 72.3803 53.125 69.5624 53.125H19.0936C17.2134 53.1241 15.3548 52.7239 13.6407 51.951C11.9267 51.1781 10.3963 50.0501 9.15082 48.6416C7.90531 47.233 6.97307 45.5761 6.41577 43.7803C5.85847 41.9846 5.68881 40.091 5.91802 38.2248C6.14722 36.3585 6.77006 34.5623 7.74534 32.9548C8.72062 31.3472 10.0261 29.9651 11.5754 28.8998C13.1248 27.8346 14.8827 27.1104 16.7328 26.7752C18.5829 26.4401 20.4831 26.5016 22.3077 26.9556C22.9586 27.118 23.6469 27.028 24.2342 26.7038C24.8215 26.3796 25.2644 25.8452 25.4739 25.2078C26.8779 20.9641 29.5838 17.2708 33.2069 14.6528C36.83 12.0349 41.1861 10.6255 45.6561 10.625Z" fill="#E3E9CD"/>
</g>
<defs>
<clipPath id="clip0_20_59">
<rect width="85" height="85" fill="white" transform="translate(0.5)"/>
</clipPath>
</defs>
</svg>
